<svg t="1665154964572" class="icon" viewBox="0 0 1024 1024" version="1.1" xmlns="http://www.w3.org/2000/svg" p-id="2759" width="128" height="128"><path d="M622.592 81.92c-13.312 0-25.6 4.096-36.864 11.264l-348.16 230.4c-14.336 9.216-31.744 15.36-49.152 15.36h-69.632C80.896 337.92 51.2 367.616 51.2 404.48v202.752c0 36.864 29.696 66.56 66.56 66.56h69.632c17.408 0 34.816 5.12 49.152 15.36l349.184 230.4c11.264 7.168 23.552 11.264 36.864 11.264 36.864 0 66.56-29.696 66.56-66.56V148.48c1.024-36.864-29.696-66.56-66.56-66.56zM102.4 607.232V404.48c0-8.192 7.168-15.36 15.36-15.36H184.32v233.472h-66.56c-8.192 0-15.36-7.168-15.36-15.36z m535.552 256c0 9.216-8.192 15.36-15.36 15.36-3.072 0-6.144-1.024-8.192-3.072L265.216 646.144c-8.192-5.12-16.384-10.24-25.6-13.312V378.88c9.216-3.072 17.408-8.192 25.6-13.312L614.4 135.168c3.072-2.048 5.12-3.072 8.192-3.072 7.168 0 15.36 6.144 15.36 15.36v715.776zM797.696 386.048c-11.264-9.216-27.648-7.168-35.84 4.096-9.216 11.264-7.168 27.648 4.096 35.84 27.648 22.528 44.032 56.32 44.032 92.16 0 34.816-15.36 67.584-41.984 90.112-11.264 9.216-12.288 25.6-3.072 35.84 5.12 6.144 12.288 9.216 19.456 9.216 6.144 0 11.264-2.048 16.384-6.144 38.912-31.744 60.416-79.872 60.416-130.048 0-50.176-22.528-98.304-63.488-131.072z" p-id="2760"></path><path d="M867.328 271.36c-11.264-8.192-27.648-5.12-35.84 7.168-8.192 11.264-5.12 27.648 7.168 35.84 66.56 45.056 106.496 119.808 106.496 199.68 0 84.992-43.008 161.792-115.712 205.824-12.288 7.168-16.384 23.552-8.192 34.816 5.12 8.192 13.312 12.288 21.504 12.288 4.096 0 9.216-1.024 13.312-4.096 88.064-53.248 140.288-146.432 140.288-249.856-1.024-96.256-49.152-186.368-129.024-241.664z" p-id="2761"></path></svg>