<svg t="1665154997289" class="icon" viewBox="0 0 1024 1024" version="1.1" xmlns="http://www.w3.org/2000/svg" p-id="3350" width="128" height="128"><path d="M878.22 708.58c-9.45-81.71-46.65-155.55-107.15-211.13-56.2-51.62-128.59-84.11-207.68-93.95v-89.06c46.66-20.01 79.43-66.39 79.43-120.29 0-72.14-58.69-130.82-130.82-130.82s-130.82 58.69-130.82 130.82c0 53.9 32.77 100.28 79.43 120.29v89.04C381.46 413.3 309 445.8 252.77 497.45c-60.52 55.59-97.72 129.46-107.16 211.19-47.84 19.47-81.67 66.45-81.67 121.21 0 72.14 58.69 130.82 130.82 130.82s130.82-58.69 130.82-130.82c0-52.78-31.43-98.32-76.55-118.99 8.34-53.36 33.62-101.29 73.27-137.72 37.41-34.37 85.33-56.97 138.31-65.83v202.24c-46.66 20.01-79.43 66.39-79.43 120.29 0 72.14 58.69 130.82 130.82 130.82s130.82-58.69 130.82-130.82c0-53.9-32.77-100.28-79.43-120.29v-202.2c52.91 8.88 100.77 31.47 138.14 65.8 39.67 36.44 64.96 84.4 73.28 137.79-45.03 20.69-76.39 66.2-76.39 118.92 0 72.14 58.69 130.82 130.82 130.82s130.82-58.69 130.82-130.82c0.01-54.83-33.9-101.85-81.84-121.28zM194.75 857.89c-15.46 0-28.03-12.58-28.03-28.03s12.58-28.03 28.03-28.03 28.03 12.58 28.03 28.03-12.57 28.03-28.03 28.03zM512 166.11c15.46 0 28.03 12.57 28.03 28.03s-12.58 28.03-28.03 28.03c-15.46 0-28.03-12.57-28.03-28.03s12.57-28.03 28.03-28.03z m0 691.78c-15.46 0-28.03-12.58-28.03-28.03s12.58-28.03 28.03-28.03c15.46 0 28.03 12.58 28.03 28.03s-12.57 28.03-28.03 28.03z m317.25 0c-15.46 0-28.03-12.58-28.03-28.03s12.58-28.03 28.03-28.03 28.03 12.58 28.03 28.03-12.57 28.03-28.03 28.03z" p-id="3351"></path></svg>